<svg width="64" height="64" viewBox="0 0 64 64" fill="none" xmlns="http://www.w3.org/2000/svg">
<rect width="64" height="64" rx="16" fill="#6366F1"/>
<circle cx="33.158" cy="35.6667" r="18.3333" fill="white"/>
<circle cx="33.158" cy="35.6667" r="13.0952" fill="#6366F1"/>
<path d="M29.9471 50.9812C32.0855 51.522 34.3259 51.514 36.4603 50.9577L33.158 38.2858L29.9471 50.9812Z" fill="white"/>
<path d="M33.158 19.9525C30.9523 19.9525 28.7823 20.5096 26.8494 21.5722L33.158 33.0477L33.158 19.9525Z" fill="white"/>
<rect x="31.8485" y="14.7144" width="2.61904" height="3.92856" fill="white"/>
<rect x="17.47" y="21.7595" width="2.61904" height="3.92856" transform="rotate(-45 17.47 21.7595)" fill="white"/>
<path fill-rule="evenodd" clip-rule="evenodd" d="M28.9676 10C27.6657 10 26.6104 11.0553 26.6104 12.3571V15.7578C28.6704 15.0807 30.8714 14.7144 33.158 14.7144C35.4446 14.7144 37.6456 15.0807 39.7056 15.7578V12.3571C39.7056 11.0553 38.6503 10 37.3485 10H28.9676Z" fill="white"/>
<path fill-rule="evenodd" clip-rule="evenodd" d="M14.1754 18.3983C13.2549 19.3188 13.2549 20.8112 14.1754 21.7317L16.0683 23.6246C16.7615 22.6341 17.5504 21.6902 18.4349 20.8057C19.3194 19.9213 20.2632 19.1324 21.2537 18.4391L19.3609 16.5463C18.4404 15.6258 16.9479 15.6258 16.0274 16.5463L14.1754 18.3983Z" fill="white"/>
</svg>
